<svg width="14" height="14" viewBox="0 0 14 14" fill="none" xmlns="http://www.w3.org/2000/svg">
<path d="M13.8701 9.93262L10.0625 13.7471L8.22363 11.9014L8.83887 11.2861L10.0625 12.5029L13.2549 9.31738L13.8701 9.93262ZM7 2.625V6.125H9.625V7H6.125V2.625H7ZM6.5625 12.25C6.63542 12.25 6.70833 12.2477 6.78125 12.2432C6.85417 12.2386 6.92708 12.234 7 12.2295L7.7793 13.0088C7.57422 13.0452 7.37142 13.0726 7.1709 13.0908C6.97038 13.109 6.76758 13.1204 6.5625 13.125C5.96094 13.125 5.38216 13.0475 4.82617 12.8926C4.27018 12.7376 3.74609 12.5166 3.25391 12.2295C2.76172 11.9424 2.31966 11.6006 1.92773 11.2041C1.53581 10.8076 1.19401 10.3633 0.902344 9.87109C0.610677 9.37891 0.389648 8.8571 0.239258 8.30566C0.0888672 7.75423 0.00911458 7.17318 0 6.5625C0 5.96094 0.077474 5.38216 0.232422 4.82617C0.38737 4.27018 0.608398 3.74609 0.895508 3.25391C1.18262 2.76172 1.52441 2.31966 1.9209 1.92773C2.31738 1.53581 2.76172 1.19401 3.25391 0.902344C3.74609 0.610677 4.2679 0.389648 4.81934 0.239258C5.37077 0.0888672 5.95182 0.00911458 6.5625 0C7.16406 0 7.74284 0.077474 8.29883 0.232422C8.85482 0.38737 9.37891 0.608398 9.87109 0.895508C10.3633 1.18262 10.8053 1.52441 11.1973 1.9209C11.5892 2.31738 11.931 2.76172 12.2227 3.25391C12.5143 3.74609 12.7354 4.2679 12.8857 4.81934C13.0361 5.37077 13.1159 5.95182 13.125 6.5625C13.125 6.79036 13.1113 7.02051 13.084 7.25293L11.9355 8.4082C12.1452 7.80208 12.25 7.18685 12.25 6.5625C12.25 6.03841 12.1816 5.53483 12.0449 5.05176C11.9082 4.56868 11.7168 4.11751 11.4707 3.69824C11.2246 3.27897 10.9284 2.89388 10.582 2.54297C10.2357 2.19206 9.85286 1.89583 9.43359 1.6543C9.01432 1.41276 8.56087 1.22135 8.07324 1.08008C7.58561 0.938802 7.08203 0.870443 6.5625 0.875C6.03841 0.875 5.53483 0.943359 5.05176 1.08008C4.56868 1.2168 4.11751 1.4082 3.69824 1.6543C3.27897 1.90039 2.89388 2.19661 2.54297 2.54297C2.19206 2.88932 1.89583 3.27214 1.6543 3.69141C1.41276 4.11068 1.22135 4.56413 1.08008 5.05176C0.938802 5.53939 0.870443 6.04297 0.875 6.5625C0.875 7.08659 0.943359 7.59017 1.08008 8.07324C1.2168 8.55632 1.4082 9.00749 1.6543 9.42676C1.90039 9.84603 2.19661 10.2311 2.54297 10.582C2.88932 10.9329 3.27214 11.2292 3.69141 11.4707C4.11068 11.7122 4.56413 11.9036 5.05176 12.0449C5.53939 12.1862 6.04297 12.2546 6.5625 12.25Z" fill="#6D6D6D"/>
</svg>
