<svg width="16" height="16" viewBox="0 0 16 16" fill="none" xmlns="http://www.w3.org/2000/svg">
<path fill-rule="evenodd" clip-rule="evenodd" d="M10.4714 7.52867C10.5963 7.65368 10.6665 7.82322 10.6665 8C10.6665 8.17677 10.5963 8.34631 10.4714 8.47133L6.70003 12.2427C6.63853 12.3063 6.56496 12.3571 6.48363 12.3921C6.40229 12.427 6.31481 12.4454 6.22629 12.4462C6.13777 12.4469 6.04999 12.4301 5.96806 12.3965C5.88613 12.363 5.81169 12.3135 5.7491 12.2509C5.6865 12.1883 5.637 12.1139 5.60348 12.032C5.56996 11.95 5.55309 11.8623 5.55386 11.7737C5.55463 11.6852 5.57302 11.5977 5.60796 11.5164C5.6429 11.4351 5.69368 11.3615 5.75736 11.3L9.05736 8L5.75736 4.7C5.63592 4.57426 5.56872 4.40586 5.57024 4.23106C5.57176 4.05627 5.64187 3.88906 5.76548 3.76545C5.88908 3.64185 6.05629 3.57173 6.23109 3.57022C6.40589 3.5687 6.57429 3.63589 6.70003 3.75733L10.4714 7.52867Z" fill="#CB3CFF"/>
</svg>
