<svg width="20" height="20" viewBox="0 0 20 20" fill="none" xmlns="http://www.w3.org/2000/svg">
<path d="M0.75 10C0.75 12.4533 1.72455 14.806 3.45926 16.5407C5.19397 18.2754 7.54675 19.25 10 19.25V0.75C7.54675 0.75 5.19397 1.72455 3.45926 3.45926C1.72455 5.19397 0.75 7.54675 0.75 10Z" fill="#6D6D6D"/>
<path d="M10 19.25C12.4533 19.25 14.806 18.2754 16.5407 16.5407C18.2754 14.806 19.25 12.4533 19.25 10C19.25 7.54675 18.2754 5.19397 16.5407 3.45926C14.806 1.72455 12.4533 0.75 10 0.75M10 19.25C7.54675 19.25 5.19397 18.2754 3.45926 16.5407C1.72455 14.806 0.75 12.4533 0.75 10C0.75 7.54675 1.72455 5.19397 3.45926 3.45926C5.19397 1.72455 7.54675 0.75 10 0.75M10 19.25V0.75" stroke="#6D6D6D" stroke-width="1.5" stroke-linecap="round" stroke-linejoin="round"/>
</svg>
