<svg width="55" height="55" viewBox="0 0 55 55" fill="none" xmlns="http://www.w3.org/2000/svg">
<path d="M38.335 13.75C38.335 13.2942 38.1539 12.857 37.8316 12.5347C37.5093 12.2123 37.0721 12.0313 36.6162 12.0312C36.1604 12.0313 35.7232 12.2123 35.4009 12.5347C35.0786 12.857 34.8975 13.2942 34.8975 13.75V16.0944C32.3676 14.3393 29.2963 13.5405 26.2319 13.8406C23.1675 14.1408 20.3096 15.5203 18.1683 17.7329C13.0419 22.9808 13.0419 31.476 18.1683 36.724C19.3797 37.9742 20.83 38.9682 22.433 39.6471C24.0361 40.3259 25.7592 40.6757 27.5 40.6757C29.2408 40.6757 30.9639 40.3259 32.567 39.6471C34.17 38.9682 35.6203 37.9742 36.8317 36.724C38.2539 35.2624 39.329 33.4996 39.9772 31.566C40.6254 29.6325 40.8302 27.5778 40.5762 25.5544C40.5489 25.3302 40.4776 25.1136 40.3665 24.9169C40.2554 24.7202 40.1066 24.5474 39.9287 24.4082C39.7508 24.269 39.5473 24.1663 39.3296 24.1058C39.112 24.0453 38.8846 24.0282 38.6604 24.0556C38.4362 24.083 38.2196 24.1543 38.0229 24.2654C37.8263 24.3765 37.6534 24.5252 37.5143 24.7031C37.3751 24.881 37.2723 25.0846 37.2118 25.3022C37.1513 25.5199 37.1343 25.7473 37.1617 25.9715C37.5283 28.9506 36.5887 32.0513 34.3727 34.3223C33.4815 35.2448 32.4137 35.9784 31.2329 36.4794C30.0522 36.9805 28.7827 37.2387 27.5 37.2387C26.2173 37.2387 24.9478 36.9805 23.7671 36.4794C22.5863 35.9784 21.5185 35.2448 20.6273 34.3223C16.8048 30.4081 16.8048 24.0487 20.6273 20.1369C22.0465 18.6684 23.8987 17.6932 25.9125 17.3542C27.9263 17.0152 29.9958 17.3303 31.8175 18.2531H30.5387C30.0829 18.2531 29.6457 18.4342 29.3234 18.7565C29.0011 19.0789 28.82 19.516 28.82 19.9719C28.82 20.4277 29.0011 20.8649 29.3234 21.1872C29.6457 21.5095 30.0829 21.6906 30.5387 21.6906H36.614C37.0698 21.6906 37.507 21.5095 37.8293 21.1872C38.1516 20.8649 38.3327 20.4277 38.3327 19.9719L38.335 13.75Z" fill="#CB3CFF"/>
<path fill-rule="evenodd" clip-rule="evenodd" d="M27.4999 2.86458C13.8943 2.86458 2.8645 13.8944 2.8645 27.5C2.8645 41.1056 13.8943 52.1354 27.4999 52.1354C41.1055 52.1354 52.1353 41.1056 52.1353 27.5C52.1353 13.8944 41.1055 2.86458 27.4999 2.86458ZM6.302 27.5C6.302 21.878 8.53535 16.4862 12.5107 12.5108C16.4861 8.53542 21.8779 6.30208 27.4999 6.30208C33.122 6.30208 38.5137 8.53542 42.4891 12.5108C46.4645 16.4862 48.6978 21.878 48.6978 27.5C48.6978 33.122 46.4645 38.5138 42.4891 42.4892C38.5137 46.4646 33.122 48.6979 27.4999 48.6979C21.8779 48.6979 16.4861 46.4646 12.5107 42.4892C8.53535 38.5138 6.302 33.122 6.302 27.5Z" fill="#CB3CFF"/>
</svg>
