<svg width="12" height="13" viewBox="0 0 12 13" fill="none" xmlns="http://www.w3.org/2000/svg">
<path d="M0.5 12.5002H11.1667M1.61067 7.29156C1.32641 7.57645 1.16674 7.96244 1.16667 8.36489V10.5002H3.31533C3.718 10.5002 4.104 10.3402 4.38867 10.0549L10.722 3.71822C11.0062 3.43329 11.1657 3.0473 11.1657 2.64489C11.1657 2.24248 11.0062 1.85649 10.722 1.57156L10.0967 0.944891C9.95564 0.803792 9.78819 0.691874 9.60388 0.615536C9.41957 0.539198 9.22202 0.499938 9.02253 0.5C8.82304 0.500062 8.62551 0.539445 8.44125 0.615897C8.25699 0.692349 8.08961 0.804371 7.94867 0.945558L1.61067 7.29156Z" stroke="#CB3CFF" stroke-linecap="round" stroke-linejoin="round"/>
</svg>
