<svg width="14" height="14" viewBox="0 0 14 14" fill="none" xmlns="http://www.w3.org/2000/svg">
<path d="M1.79133 2.68667L3.2 11.1953C3.26443 11.5849 3.46506 11.9389 3.76613 12.1943C4.06721 12.4497 4.44918 12.5899 4.844 12.59H7.076M11.5413 2.68667L10.1333 11.1953C10.0689 11.5849 9.86827 11.9389 9.5672 12.1943C9.26612 12.4497 8.88415 12.5899 8.48933 12.59H6.25733M5.348 5.95533V9.32133M7.98533 5.95533V9.32133M0.5 2.68667H12.8333M8.518 2.68667V1.5C8.518 1.23478 8.41264 0.980429 8.22511 0.792893C8.03757 0.605357 7.78322 0.5 7.518 0.5H5.81533C5.55012 0.5 5.29576 0.605357 5.10823 0.792893C4.92069 0.980429 4.81533 1.23478 4.81533 1.5V2.68667H8.518Z" stroke="#CB3CFF" stroke-linecap="round" stroke-linejoin="round"/>
</svg>
