<svg width="16" height="16" viewBox="0 0 16 16" fill="none" xmlns="http://www.w3.org/2000/svg">
<path fill-rule="evenodd" clip-rule="evenodd" d="M8.40004 7.66865L10.994 10.2626L10.4287 10.8286L7.60004 7.99998V3.99998H8.40004V7.66865ZM8.00004 14.6666C4.31804 14.6666 1.33337 11.682 1.33337 7.99998C1.33337 4.31798 4.31804 1.33331 8.00004 1.33331C11.682 1.33331 14.6667 4.31798 14.6667 7.99998C14.6667 11.682 11.682 14.6666 8.00004 14.6666ZM8.00004 13.8666C9.55598 13.8666 11.0482 13.2486 12.1484 12.1483C13.2486 11.0481 13.8667 9.55592 13.8667 7.99998C13.8667 6.44404 13.2486 4.95183 12.1484 3.85162C11.0482 2.75141 9.55598 2.13331 8.00004 2.13331C6.4441 2.13331 4.95189 2.75141 3.85168 3.85162C2.75147 4.95183 2.13337 6.44404 2.13337 7.99998C2.13337 9.55592 2.75147 11.0481 3.85168 12.1483C4.95189 13.2486 6.4441 13.8666 8.00004 13.8666Z" fill="#6D6D6D"/>
</svg>
